<svg style="width: 100%; height: 100%;" class="svgja"><rect x="0" y="0" width="714.6" height="397" fill="transparent"></rect><rect x="238.20000000000002" y="79.4" width="79.4" height="79.4" fill="rgba(255,255,255, .1)"></rect><rect x="277.9" y="79.4" width="39.7" height="39.7" fill="rgba(255,255,255, .12)"></rect><rect x="317.6" y="158.8" width="79.4" height="79.4" fill="rgba(255,255,255, .09)"></rect><rect x="357.3" y="158.8" width="39.7" height="39.7" fill="rgba(255,255,255, .1)"></rect><rect x="317.6" y="198.5" width="39.7" height="39.7" fill="rgba(255,255,255, .071)"></rect><rect x="476.40000000000003" y="158.8" width="79.4" height="79.4" fill="rgba(255,255,255, .081)"></rect><rect x="476.4" y="158.8" width="39.7" height="39.7" fill="rgba(255,255,255, .1)"></rect><rect x="516.1" y="158.8" width="39.7" height="39.7" fill="rgba(255,255,255, .1)"></rect><rect x="516.1" y="198.5" width="39.7" height="39.7" fill="rgba(255,255,255, .071)"></rect><rect x="555.8000000000001" y="158.8" width="79.4" height="79.4" fill="rgba(255,255,255, .061)"></rect><rect x="555.8" y="198.5" width="39.7" height="39.7" fill="rgba(255,255,255, .1)"></rect><rect x="0" y="238.20000000000002" width="79.4" height="79.4" fill="rgba(255,255,255, .081)"></rect><rect x="0" y="238.2" width="39.7" height="39.7" fill="rgba(255,255,255, .071)"></rect><rect x="39.7" y="238.2" width="39.7" height="39.7" fill="rgba(255,255,255, .081)"></rect><rect x="0" y="277.9" width="39.7" height="39.7" fill="rgba(255,255,255, .071)"></rect><rect x="39.7" y="277.9" width="39.7" height="39.7" fill="rgba(255,255,255, .1)"></rect><rect x="79.4" y="238.20000000000002" width="79.4" height="79.4" fill="rgba(255,255,255, .051)"></rect><rect x="79.4" y="238.2" width="39.7" height="39.7" fill="rgba(255,255,255, .081)"></rect><rect x="119.1" y="238.2" width="39.7" height="39.7" fill="rgba(255,255,255, .061)"></rect><rect x="158.8" y="238.20000000000002" width="79.4" height="79.4" fill="rgba(255,255,255, .091)"></rect><rect x="158.8" y="238.2" width="39.7" height="39.7" fill="rgba(255,255,255, .061)"></rect><rect x="198.5" y="238.2" width="39.7" height="39.7" fill="rgba(255,255,255, .081)"></rect><rect x="158.8" y="277.9" width="39.7" height="39.7" fill="rgba(255,255,255, .081)"></rect><rect x="238.20000000000002" y="238.20000000000002" width="79.4" height="79.4" fill="rgba(255,255,255, .071)"></rect><rect x="238.2" y="238.2" width="39.7" height="39.7" fill="rgba(255,255,255, .061)"></rect><rect x="277.9" y="238.2" width="39.7" height="39.7" fill="rgba(255,255,255, .071)"></rect><rect x="238.2" y="277.9" width="39.7" height="39.7" fill="rgba(255,255,255, .061)"></rect><rect x="277.9" y="277.9" width="39.7" height="39.7" fill="rgba(255,255,255, .1)"></rect><rect x="317.6" y="238.20000000000002" width="79.4" height="79.4" fill="rgba(255,255,255, .061)"></rect><rect x="317.6" y="238.2" width="39.7" height="39.7" fill="rgba(255,255,255, .061)"></rect><rect x="317.6" y="277.9" width="39.7" height="39.7" fill="rgba(255,255,255, .081)"></rect><rect x="357.3" y="277.9" width="39.7" height="39.7" fill="rgba(255,255,255, .1)"></rect><rect x="555.8000000000001" y="238.20000000000002" width="79.4" height="79.4" fill="rgba(255,255,255, .1)"></rect><rect x="555.8" y="238.2" width="39.7" height="39.7" fill="rgba(255,255,255, .071)"></rect><rect x="595.5" y="238.2" width="39.7" height="39.7" fill="rgba(255,255,255, .12)"></rect><rect x="555.8" y="277.9" width="39.7" height="39.7" fill="rgba(255,255,255, .06)"></rect><rect x="595.5" y="277.9" width="39.7" height="39.7" fill="rgba(255,255,255, .081)"></rect><rect x="635.2" y="238.20000000000002" width="79.4" height="79.4" fill="rgba(255,255,255, .031)"></rect><rect x="635.2" y="238.2" width="39.7" height="39.7" fill="rgba(255,255,255, .071)"></rect><rect x="635.2" y="277.9" width="39.7" height="39.7" fill="rgba(255,255,255, .081)"></rect><rect x="0" y="317.6" width="79.4" height="79.4" fill="rgba(255,255,255, .1)"></rect><rect x="0" y="317.6" width="39.7" height="39.7" fill="rgba(255,255,255, .081)"></rect><rect x="39.7" y="317.6" width="39.7" height="39.7" fill="rgba(255,255,255, .081)"></rect><rect x="0" y="357.3" width="39.7" height="39.7" fill="rgba(255,255,255, .071)"></rect><rect x="39.7" y="357.3" width="39.7" height="39.7" fill="rgba(255,255,255, .081)"></rect><rect x="79.4" y="317.6" width="79.4" height="79.4" fill="rgba(255,255,255, .081)"></rect><rect x="79.4" y="317.6" width="39.7" height="39.7" fill="rgba(255,255,255, .091)"></rect><rect x="119.1" y="317.6" width="39.7" height="39.7" fill="rgba(255,255,255, .11)"></rect><rect x="79.4" y="357.3" width="39.7" height="39.7" fill="rgba(255,255,255, .1)"></rect><rect x="119.1" y="357.3" width="39.7" height="39.7" fill="rgba(255,255,255, .081)"></rect><rect x="158.8" y="317.6" width="79.4" height="79.4" fill="rgba(255,255,255, .081)"></rect><rect x="158.8" y="317.6" width="39.7" height="39.7" fill="rgba(255,255,255, .091)"></rect><rect x="198.5" y="317.6" width="39.7" height="39.7" fill="rgba(255,255,255, .1)"></rect><rect x="158.8" y="357.3" width="39.7" height="39.7" fill="rgba(255,255,255, .12)"></rect><rect x="198.5" y="357.3" width="39.7" height="39.7" fill="rgba(255,255,255, .04)"></rect><rect x="238.20000000000002" y="317.6" width="79.4" height="79.4" fill="rgba(255,255,255, .061)"></rect><rect x="238.2" y="317.6" width="39.7" height="39.7" fill="rgba(255,255,255, .081)"></rect><rect x="277.9" y="317.6" width="39.7" height="39.7" fill="rgba(255,255,255, .071)"></rect><rect x="238.2" y="357.3" width="39.7" height="39.7" fill="rgba(255,255,255, .051)"></rect><rect x="277.9" y="357.3" width="39.7" height="39.7" fill="rgba(255,255,255, .061)"></rect><rect x="317.6" y="317.6" width="79.4" height="79.4" fill="rgba(255,255,255, .1)"></rect><rect x="317.6" y="317.6" width="39.7" height="39.7" fill="rgba(255,255,255, .051)"></rect><rect x="357.3" y="317.6" width="39.7" height="39.7" fill="rgba(255,255,255, .12)"></rect><rect x="317.6" y="357.3" width="39.7" height="39.7" fill="rgba(255,255,255, .041)"></rect><rect x="357.3" y="357.3" width="39.7" height="39.7" fill="rgba(255,255,255, .081)"></rect><rect x="397" y="317.6" width="79.4" height="79.4" fill="rgba(255,255,255, .071)"></rect><rect x="397" y="317.6" width="39.7" height="39.7" fill="rgba(255,255,255, .091)"></rect><rect x="436.7" y="317.6" width="39.7" height="39.7" fill="rgba(255,255,255, .13)"></rect><rect x="397" y="357.3" width="39.7" height="39.7" fill="rgba(255,255,255, .051)"></rect><rect x="476.40000000000003" y="317.6" width="79.4" height="79.4" fill="rgba(255,255,255, .071)"></rect><rect x="476.4" y="317.6" width="39.7" height="39.7" fill="rgba(255,255,255, .061)"></rect><rect x="516.1" y="317.6" width="39.7" height="39.7" fill="rgba(255,255,255, .041)"></rect><rect x="476.4" y="357.3" width="39.7" height="39.7" fill="rgba(255,255,255, .041)"></rect><rect x="516.1" y="357.3" width="39.7" height="39.7" fill="rgba(255,255,255, .081)"></rect><rect x="555.8000000000001" y="317.6" width="79.4" height="79.4" fill="rgba(255,255,255, .071)"></rect><rect x="555.8" y="317.6" width="39.7" height="39.7" fill="rgba(255,255,255, .091)"></rect><rect x="595.5" y="317.6" width="39.7" height="39.7" fill="rgba(255,255,255, .071)"></rect><rect x="555.8" y="357.3" width="39.7" height="39.7" fill="rgba(255,255,255, .061)"></rect><rect x="595.5" y="357.3" width="39.7" height="39.7" fill="rgba(255,255,255, .091)"></rect><rect x="635.2" y="317.6" width="79.4" height="79.4" fill="rgba(255,255,255, .12)"></rect><rect x="635.2" y="317.6" width="39.7" height="39.7" fill="rgba(255,255,255, .041)"></rect><rect x="674.9" y="317.6" width="39.7" height="39.7" fill="rgba(255,255,255, .071)"></rect><rect x="635.2" y="357.3" width="39.7" height="39.7" fill="rgba(255,255,255, .081)"></rect><rect x="674.9" y="357.3" width="39.7" height="39.7" fill="rgba(255,255,255, .091)"></rect></svg>